<?xml version="1.0" encoding="UTF-8"?> <svg xmlns="http://www.w3.org/2000/svg" xmlns:xlink="http://www.w3.org/1999/xlink" width="586" height="205" viewBox="0 0 586 205"> <defs> <clipPath id="clip-lgo-panda-red-s-back1"> <rect width="586" height="205"></rect> </clipPath> </defs> <g id="lgo-panda-red-s-back1" clip-path="url(#clip-lgo-panda-red-s-back1)"> <path id="Контур_38" data-name="Контур 38" d="M.659,6.225,8.119-10.2,20.783-20.273l21.339-3.491,20.215,3.074,14.145,9.128L84.253-1.55l5.14,19.128L80.4,34.556l-7.853-1.712L71.563-.611l.54,13.658L57.892.1,31.308.229,18.714,9.314,18.08,53H0Z" transform="matrix(0.07, 0.998, -0.998, 0.07, 385.638, 3.127)" fill="#ed0000"></path> <rect id="Прямоугольник_5" data-name="Прямоугольник 5" width="87.08" height="22" transform="matrix(0.07, 0.998, -0.998, 0.07, 354.713, 5.289)" fill="#ed0000"></rect> <rect id="Прямоугольник_4" data-name="Прямоугольник 4" width="79" height="17" transform="matrix(0.998, -0.07, 0.07, 0.998, 253.003, 87.132)" fill="#ed0000"></rect> <g id="Logo"> <path id="Контур_28" data-name="Контур 28" d="M325.569,9.361l.7,13.807-66.778,4.914-3.28.234.117,3.276.7,14.86.117,3.393,3.4-.234,64.434-4.563.7,13.807L261.252,63.3l-3.281.234.117,3.276.938,17.785.117,3.393,3.4-.234,66.66-4.8.7,14.158L241.1,103.9l-.234-3.51-4.218-84.13ZM196.232,20.126c9.372,0,16.518,1.872,21.087,5.5,4.569,3.51,6.912,8.893,7.264,16.147.468,9.712-3.866,17.551-13.239,23.87l-2.929,1.989,2.109,2.808L235.009,102.5l1.289,1.755-20.736,1.872-20.5-30.89L194.006,73.6l-1.992.117-6.443.585-3.164.234.118,3.159,1.523,31.124L165.3,110.457l-4.335-87.64L188.5,20.36C191.194,20.243,193.771,20.126,196.232,20.126ZM181.705,62.132l3.4-.351,4.8-.468c10.661-.936,16.167-6.787,15.7-16.381-.235-4.446-2.343-11.818-14.176-11.818a25.525,25.525,0,0,0-2.929.117l-5.037.468-3.046.234.117,3.159,1.054,21.53ZM328.732,5.85l-95.363,7.372,4.335,87.289L213.219,68.45c10.309-6.9,15.23-15.8,14.644-26.8-.82-16.5-11.364-24.806-31.749-24.806-2.46,0-5.154.117-7.966.351l-30.694,2.808,4.686,94.309,25.305-2.223-1.757-34.284,6.443-.585,21.556,32.529,24.134-2.107,95.363-7.371-1.055-20.711L262.072,84.6l-.938-17.785,67.832-4.8-1.054-20.477-67.832,4.8-.7-14.86,70.058-5.031ZM184.868,58.5l-1.055-21.53,5.038-.468a20.74,20.74,0,0,1,2.694-.117c6.912,0,10.544,2.925,10.9,8.659q.527,11.759-12.653,12.988Z" fill="#ed0000"></path> <path id="Контур_29" data-name="Контур 29" d="M371.493,5.616c10.895,0,19.8,2.691,26.359,8.074,7.732,6.319,12.067,16.5,12.77,30.071.7,14.743-2.7,26.561-10.31,35.22-7.615,8.542-18.861,13.573-33.506,14.86L339.861,96.3l-4.334-87.64,29.288-2.574A44.776,44.776,0,0,1,371.493,5.616ZM357.9,80.268l3.4-.351,5.624-.468c8.669-.819,15.112-3.978,18.978-9.595,3.749-5.382,5.507-13.222,4.921-23.168-.469-9.478-2.7-16.381-6.912-20.828-3.749-3.978-8.9-6.084-15.464-6.084a27.537,27.537,0,0,0-3.046.117l-7.381.7-3.163.234.117,3.159,2.577,52.771ZM371.493,2.34q-3.339,0-7.03.351L332.012,5.616,336.7,99.926l30.343-2.691c15.581-1.4,27.531-6.786,35.731-16.03s11.95-21.764,11.13-37.56c-.7-14.626-5.389-25.391-13.941-32.412C392.814,5.265,383.325,2.34,371.493,2.34Zm-10.427,74.3L358.489,23.87l7.38-.7a22.609,22.609,0,0,1,2.812-.117c5.623,0,9.958,1.638,13,5.031,3.632,3.861,5.623,10.063,6.092,18.722.468,9.244-.937,16.264-4.335,21.062s-8.9,7.606-16.636,8.308Z" fill="#ed0000"></path> <path id="Контур_32" data-name="Контур 32" d="M420.111,80.034l-20.853,1.872,1.991,38.73c.235,5.266.938,12.169,1.875,20.711h-.352L368.329,84.6,337.87,87.289,342.2,172.94l20.619-1.873-1.991-38.613c-.235-5.031-.938-12.169-2.226-21.646h.586l34.56,57.568,30.577-2.691Z"></path> <path id="Контур_33" data-name="Контур 33" d="M489.114,84.481c-7.849-6.318-18.744-8.893-32.568-7.723l-29.874,2.691,4.334,85.651,27.883-2.457c14.41-1.287,25.3-6.085,32.92-14.626,7.5-8.425,11.012-19.775,10.192-34.167C501.3,100.745,496.964,90.916,489.114,84.481Zm-15.347,51.6c-3.046,4.329-8.2,6.9-15.23,7.488l-5.154.468-2.461-47.973,6.8-.585c6.326-.585,11.247.936,14.527,4.446s5.155,9.244,5.624,17.083C478.219,125.317,476.813,131.752,473.767,136.082Z"></path> <path id="Контур_34" data-name="Контур 34" d="M586,151.293,553.2,67.865l-31.163,2.808-23.782,88.459,25.657-2.34,3.514-16.5,28-2.457,5.038,15.679Zm-54.711-30.306c2.929-13.807,4.8-22.933,5.624-27.614s1.288-7.957,1.64-10.063c.469,2.106,1.523,5.616,2.929,10.414,1.523,4.8,2.694,8.776,3.749,11.818l4.451,13.69Z"></path> <path id="Контур_35" data-name="Контур 35" d="M70.175,110.574c-8.552,0-15.581-4.213-15.581-2.809s6.912,7.489,15.581,7.489c8.435,0,15.347-6.2,15.347-7.489C85.522,106.244,78.61,110.574,70.175,110.574Zm-48.5-94.427A19.98,19.98,0,0,1,39.246,26.561a54.162,54.162,0,0,1,23.548-9.478,22.8,22.8,0,0,0-1.054-5.5,20,20,0,0,1,3.28,5.265h.469a58.629,58.629,0,0,0-.352-10.063,44.46,44.46,0,0,1,3.515,9.829c.937-5.616.469-11-.117-16.615a62.453,62.453,0,0,1,3.4,16.615h.117c1.054-2.34,2.226-4.68,3.163-6.787a20.025,20.025,0,0,0,.234,7.021,1.488,1.488,0,0,1,.7.117,9.759,9.759,0,0,1,4.218-3.627,13.075,13.075,0,0,0-1.406,4.1,55.253,55.253,0,0,1,22.259,9.244,19.96,19.96,0,0,1,37.489,9.478c0,10.882-3.046,23.636-13.589,24.1A61.426,61.426,0,0,1,127.7,73.95c.937,12.754-1.406,24.338-11.012,33.581-6.21,5.266-13.59,8.191-19.8,12.988C87.865,127.54,77.907,132.8,70.643,132.8c-7.5,0-17.573-5.031-26.828-12.286-5.975-4.8-15-8.541-20.15-13.222-9.606-9.243-11.832-20.827-10.9-33.581a67.091,67.091,0,0,1,2.46-13.69C4.686,59.675,1.757,46.8,1.757,36.039A19.887,19.887,0,0,1,21.673,16.147ZM76.149,142.868H66.074l-1.64-7.371a27.542,27.542,0,0,0,7.146,1.17,25.016,25.016,0,0,0,6.209-.936Zm1.289,27.965L71.229,198.8l-7.966-27.966,2.929-24.806H75.8ZM2.226,162.409c-.7-.468-1.523-1.053-2.226-1.521,5.155-21.413,15.816-38.379,29.171-45.751.82.468,1.64,1.053,2.577,1.521C18.159,123.328,7.263,140.528,2.226,162.409Zm33.74-9.6,7.5-4.1L33.623,143.1l7.263-21.3c.937.585,1.757,1.287,2.577,1.872A69.2,69.2,0,0,0,59.4,133.507l-5.506,12.52,8.552,28.317L71.112,205l15.7-58.973-4.335-12.052a79.075,79.075,0,0,0,16.753-10.3c.352-.234.586-.468.937-.7l6.912,20.008L97.237,148.6l7.5,4.1L71.112,204.883Zm75.8,19.657a1.331,1.331,0,0,1-.937.351H97.706a1.066,1.066,0,0,1-.937-.468,1.328,1.328,0,0,1-.352-.936l.469-5.382a1.124,1.124,0,0,1,.7-1.053,1.065,1.065,0,0,1,1.172,0l4.1,2.223,7.03-3.978a1.265,1.265,0,0,1,1.288,0,1.343,1.343,0,0,1,.7,1.053l.469,7.137A4.207,4.207,0,0,1,111.764,172.471Zm26.949-6.737c-3.983-25.157-14.414-41.236-29.175-48.842.82-.468,1.64-1.053,2.46-1.521,7.147,4.1,13.59,10.882,18.862,20.009,5.389,9.243,7.963,16.695,10.072,28.981C140.229,164.946,139.416,165.032,138.713,165.734Zm-15-109.8c4.686-2.457,7.732-1.287,9.841-10.3,1.991-8.893.468-14.86-3.046-20.009s-13.122-6.319-17.105-4.1-5.965,2.092-9.48,7.357C103.924,29,115.513,35.8,123.714,55.93ZM64.083,95.6c2.226.468,2.812,1.638,3.632,2.223a3.387,3.387,0,0,0,2.46.585A2.683,2.683,0,0,0,72.4,97.82,7.127,7.127,0,0,1,76.032,95.6c1.054-.117,3.28-.7,3.28-3.159,0-4.212-4.1-7.489-9.255-7.489H69.94c-5.038,0-9.255,3.276-9.255,7.489C60.8,94.894,63.263,95.479,64.083,95.6ZM95.714,80.97a15.336,15.336,0,0,0,7.264-28.784,8.423,8.423,0,0,1,4.217,1.17c-4.335-5.617-15.581-4.8-20.5.351C70.058,66.812,81.539,80.97,95.714,80.97ZM93.254,57.8a5.772,5.772,0,0,1,5.858,5.733V68.1a5.835,5.835,0,0,1-9.489,4.446A5.312,5.312,0,0,0,91.5,72.9a4.723,4.723,0,0,0,4.686-4.8V64.472a4.7,4.7,0,0,0-4.686-4.68,4.836,4.836,0,0,0-3.632,1.638A6.03,6.03,0,0,1,93.254,57.8Zm-3.866,8.074v-1.4a1.874,1.874,0,0,1,3.749,0v1.4a1.874,1.874,0,0,1-3.749,0ZM37.372,52.3h.117a15.525,15.525,0,0,0-8.2,13.573,15.19,15.19,0,0,0,15.23,15.211c14.175,0,25.656-14.158,9.021-27.263-5.038-5.148-16.167-5.85-20.5-.351A8.048,8.048,0,0,1,37.372,52.3ZM50.727,65.876a1.849,1.849,0,0,1-1.874,1.872,1.932,1.932,0,0,1-1.846-1.535c.009.1-.029-.111-.029-.337v-1.4a1.874,1.874,0,0,1,3.749,0Zm-9.607-2.34A5.848,5.848,0,0,1,46.978,57.8,5.621,5.621,0,0,1,52.25,61.43a5.037,5.037,0,0,0-3.632-1.638,4.7,4.7,0,0,0-4.686,4.68V68.1a4.723,4.723,0,0,0,4.686,4.8,4.862,4.862,0,0,0,1.875-.351,5.5,5.5,0,0,1-3.632,1.287A5.848,5.848,0,0,1,41,68.1V63.536Zm-24.6-7.606A70.267,70.267,0,0,1,35.23,29.376a35.266,35.266,0,0,1,3.621-2.815c-3.515-5.265-8.039-2.808-12.022-5.031-3.866-2.223-13.473-1.053-16.987,4.1S4.686,36.741,6.678,45.634C8.786,54.643,11.833,53.473,16.519,55.93Z" fill="none" stroke="#000" stroke-width="2"></path> <path id="Контур_30" data-name="Контур 30" d="M252.7,102.149q-8.61-6.318-24.953-4.914l-29.874,2.691,4.334,85.65,23.314-2.106-1.406-28.433,6.56-.585c10.427-.936,18.394-4.212,23.9-9.946,5.389-5.733,7.849-13.339,7.38-22.933C261.486,112.8,258.323,106.361,252.7,102.149Zm-30.577,14.392,5.975-.585c6.444-.585,9.841,1.989,10.075,7.84.117,3.393-.7,6.2-2.694,8.307a11.921,11.921,0,0,1-8.2,3.628l-4.217.351Z"></path> <path id="Контур_31" data-name="Контур 31" d="M340.447,172.822l-32.8-83.427-31.163,2.691L252.7,180.662l25.657-2.34,3.514-16.5,28-2.458,5.038,15.68Zm-54.711-30.305c2.929-13.807,4.8-22.934,5.624-27.614s1.288-7.957,1.64-10.063c.469,2.106,1.523,5.617,2.929,10.414,1.523,4.8,2.694,8.776,3.749,11.818l4.451,13.69Z"></path> <path id="Контур_233" data-name="Контур 233" d="M16.667-3.954l4.328-5.129,3.36-2.814,5.188-2.242H32.2l2.648-.545,6.07.545,5.422,3.15,3.42,3.326L52.68-4.08,53.87,0l.755,5.882L53.87,16.746l-3,6.275-2.976,4.186L40.7,29.53a94.718,94.718,0,0,0-8.5-17.681C27.149,4.094,16.667-3.954,16.667-3.954Z" transform="translate(84 30.877)"></path> <path id="Контур_234" data-name="Контур 234" d="M-.9-13.752l2.461-2.8,3.491-1.768h5.408l3.318,1.24,1.363,1.368,1.955,1.957.54,3.485L15.66-8.328l-2.82,1.335L9.626-5.222H7.032L0-9.133l-1.234-1.533Z" transform="translate(62 103.534)"></path> <path id="Контур_235" data-name="Контур 235" d="M17.047,19.355,26.263,4.942,33.126-.352,34.641-1.5l2.852-2.38-2.852-4-4.358-3.939-7.092-2.549-3.458-.283-6.073.516L8.339-11.254l-4,3.591L1.707-3.885-.277,2.577.573,15.955,2.9,21.812l1.437,2.894,2.712,2.787,6.328,2.394Z" transform="translate(2.188 30.644)"></path> <path id="Контур_236" data-name="Контур 236" d="M-2.072-20.76l7.12,2.444,5.329.51,7.7-.51L27.5-21.11,24.33-17.148l-4.6,2.3-5.866,1.687H10.376L6.084-14.247-.553-17.806-3.419-20.76Z" transform="translate(58 128.534)"></path> <path id="Контур_245" data-name="Контур 245" d="M3.117.063l4.061-1.25,7.408-.223L10,2H5.839L2.85,3.767,2.046,2Z" transform="translate(42 61)"></path> <rect id="Прямоугольник_12" data-name="Прямоугольник 12" width="4" height="2" transform="translate(51 58)"></rect> <rect id="Прямоугольник_13" data-name="Прямоугольник 13" width="3" height="2" transform="translate(44 63)"></rect> <path id="Контур_237" data-name="Контур 237" d="M.3,1.517,8,0l2.089,4.824L.807,7.279,0,7.083-6.556,5.538l-6.25-5.885L-6.8-8.194l2.118-.4Z" transform="translate(44 74)"></path> <path id="Контур_244" data-name="Контур 244" d="M0,0H3.412L3.57,5H0Z" transform="translate(44 64)"></path> <path id="Контур_246" data-name="Контур 246" d="M-2.516-5.217-.83-7.756-2.049-7.9,0-9.6,3.436-8.447,4,8H0l-5.176,5.741L-6.626,11.3-7.67,4.865-6.1-.7Z" transform="translate(37 60)"></path> <path id="Контур_238" data-name="Контур 238" d="M-12.152-7.078h8.639L3.828-3.07,4,2l-2.4.185L-4.618.817l-6.605,6.321Z" transform="translate(50 57)"></path> <path id="Контур_239" data-name="Контур 239" d="M-14.85-2.221l.531-3.822,2.65,3.479.341-8.114,3.14,6.584.61-11.424,2.7,11.773.267,1.181,2.276-5.541.64,5.541L-.6-2.7l3.271-3.14L1.783-2.221,11.054,0,3.52-1.481s-2.629-.687-10.055,0S-26.184,1.267-26.184,1.267l4.234-2.117Z" transform="translate(77 19.579)"></path> <path id="Контур_240" data-name="Контур 240" d="M-3.188-.275,4,.022v5.4H0l-2.957-3.5Z" transform="translate(47 67.576)"></path> <path id="Контур_241" data-name="Контур 241" d="M0,0H4V5L-6.659,2.775-7.124-.243-1.86.814Z" transform="translate(49 73)"></path> <path id="Контур_242" data-name="Контур 242" d="M.057,0,12.214-6.218,75.036,22.821,54.611,24.066l-7.226,2.548-3.12,2.75-6.138,8.52-5.311-5.35L26.092,34.9l-3.114-9.839L-.351,5.2Z" transform="translate(-142.711 2.798)"></path> <path id="Контур_243" data-name="Контур 243" d="M-.351,0l3.16-8L10.255.452l.687,6.522-.8,4.224L4.314,16.929l-4.665.961Z" transform="translate(50.624 61.558)"></path> <path id="Контур_247" data-name="Контур 247" d="M8.283,0,5.71-6.947.174.452-.351,6.974,1.417,11.1l5.047,4.815,7.02,2.2L11.228,9.994l2.834.224,2.561-1.954.74-7.051L15.832-1.4,13.3-2.51,7.408-1.217,9.679,4.7l1.056-3.486,2.75-.9L14.063,4.7l-2.641.581Z" transform="translate(78.917 62.355)"></path> <path id="Контур_248" data-name="Контур 248" d="M-.666-5.295-2.852-7.756-1.636-7.9-3.683-9.6-7.107-8.447-7.67,8h3.99l5.163,5.741L2.93,11.3l1.042-6.44L2.409-.7Z" transform="translate(106.934 59.932)"></path> <path id="Контур_249" data-name="Контур 249" d="M4.845-7.078H-4.617l-9.044,5.916L-12.152,2l-.7,9.6L-7.8,2-3.509.817.2,3.073,1.945,6.5Z" transform="translate(97.655 56.861)"></path> <path id="Контур_251" data-name="Контур 251" d="M0,22.635,5.021,6.772,9.04-1.17,14.727-9.7l8.236-9.02,5.846-4.494,2.783-1.706,10.562,6.2L33.547,4.8l10.008,5.819-7.7,4L58.857,48.649s-16.6-1.05-31.316-6.462S0,27,0,27Z" transform="translate(0 138)"></path> <path id="Контур_252" data-name="Контур 252" d="M57.545,22.532,52.213,5.772,47.625-3.3,42.4-10.8l-4.442-5.077L30.589-22.2l-4.235-2.959-10.327,6.44L21.7-3.3l2.544,8.077L14.78,10.486l7.392,4.24L14.557,26.373l5.4,2.678,7.051-4.016,1.942.343.379,9.209H13.59l.3-6.637L9.819,34.059,3.031,44.542,0,48.649s16.372-1.05,30.882-6.462S58.042,27,58.042,27Z" transform="translate(82.857 138)"></path> <path id="Контур_253" data-name="Контур 253" d="M1.1-.308,20.026,11.458l9.442,2.517,8.818-1.218,8.528-4L56.967,1.675l3.423-2.2,2.378,2.669L55.807,7.07,44.262,14.3l-8.238,2.98H27.438L18.556,14.3,0,3Z" transform="translate(40 119)"></path> <path id="Контур_254" data-name="Контур 254" d="M-1.759,1.949,4.418-11.68l4.608,1.373.882,7.942V4.694L7.359,26.656,13.438,49.4l1.667,5,3.627-14.216L21.7,24.559,20.56,10.617l-.554-9.084L8.915,1.771,7.832-.632l12.384-.555,1.849-8.054,3.829-1.769,2.034,5.783,2.878,7-2.218,8.5L24.653,24.559,22.066,35.284,18.732,46.069,16.379,59.3l-1.274.686-1.667-3.53L6.869,30.97,0,10Z" transform="translate(56 144)"></path> </g> <path id="Контур_36" data-name="Контур 36" d="M0,0,41.413-2.458,56.1,0l9.621,10.013L44.878,18.6l-3.465-4.467L24,14.709V38.99l18.361-5.257,6.352,8.384L40.425,38.99l4.453-12.851v-14H56.1l7.252-5.36,3.276,7.926-.908,17.535L52.635,44.6l7.247,12.255L47.567,55.434,50.4,63.512,42.9,45.183,61.138,59.1,72.161,75.018l-21.393,1.83L37.894,56.857l-13.506-4.1.79,35.827L5.02,90.645,0,22Z" transform="translate(159 22)" fill="#ed0000"></path> <path id="Контур_37" data-name="Контур 37" d="M0,0,92-7.033V10L22.328,14.911l4.234,74.179-5.625-.874-2.064-.142-3.346-2.349-2.914-1.448.966.472-2.219-.876h0l-2.141-.64-1.784-.4-1.827-.346V82.4L1.65,16.369Z" transform="translate(235 15)" fill="#ed0000"></path> <rect id="Прямоугольник_3" data-name="Прямоугольник 3" width="79" height="17" transform="matrix(0.998, -0.07, 0.07, 0.998, 247.286, 48.771)" fill="#ed0000"></rect> <path id="Контур_250" data-name="Контур 250" d="M.4-.514H8.016l2.489-2.338,1.282-4.827,4.525-.98,4.45,8.145s-3.168,4.563-7.316,6.335-9.8.754-9.8.754Z" transform="translate(88 74)"></path> </g> </svg> 